<?xml version="1.0" encoding="UTF-8"?>
<svg xmlns="http://www.w3.org/2000/svg" width="1200" height="800" viewBox="-400 -400 1200 800" xmlns:xlink="http://www.w3.org/1999/xlink">
  <path
    d="
      M -100 -180
      L 0 -180
      L 20 20
      L 100 -180
      L 200 -180
      L 160 80
      L 100 80
      L 130 -120
      L 45 80
      L -30 80
      L -45 -120
      L -80 80
      L -140 80
      L -100 -180
      "
    fill="#0C5C4C"
    stroke="#0C5C4C"
    stroke-width="5"
  />
  <path
    d="
      M -110 -190
      L 10 -190
      L 25 -15
      L 90 -190
      L 210 -190
      L 170 90
      L 90 90
      L 114 -60
      L 52 90
      L -40 90
      L -48 -60
      L -70 90
      L -150 90
      L -110 -190
      "
    fill="none"
    stroke="#FFFF00"
    stroke-width="5"
  />
   <path
    d="
      M 250 -180
      L 380 -180
      L 410 -140
      L 405 -70
      L 365 -40
      L 380 30
      L 400 30
      L 393 80
      L 333 80
      L 308 -32
      L 230 -32
      L 238 -87
      L 350 -87
      L 353 -91
      L 358 -130
      L 355 -135
      L 245 -135
      L 250 -182.5
      "
    fill="#0C5C4C"
    stroke="#0C5C4C"
    stroke-width="5"
  /> 
  <path
    d="
      M 240 -190
      L 385 -190
      L 420 -143
      L 415 -65
      L 375 -35
      L 388 22
      L 410 22
      L 403 90
      L 323 90
      L 298 -22
      L 220 -22

      L 228 -97
      L 340 -97
      L 343 -96

      L 348 -122
      L 345 -125
      L 235 -125
      L 240 -192.5
      "
    fill="none"
    stroke="#FFFF00"
    stroke-width="5"
  /> 
</svg>